<svg width="20" height="19" viewBox="0 0 20 19" fill="none" xmlns="http://www.w3.org/2000/svg">
<path d="M17.9822 9.02129C16.2233 5.31592 13.5644 3.45117 10 3.45117C6.4338 3.45117 3.77677 5.31592 2.01779 9.02314C1.94724 9.17254 1.91064 9.33571 1.91064 9.50093C1.91064 9.66615 1.94724 9.82931 2.01779 9.97871C3.77677 13.6841 6.43566 15.5488 10 15.5488C13.5662 15.5488 16.2233 13.6841 17.9822 9.97686C18.1251 9.67627 18.1251 9.32744 17.9822 9.02129ZM10 14.2129C7.00714 14.2129 4.81584 12.6951 3.27023 9.5C4.81584 6.30488 7.00714 4.78711 10 4.78711C12.9929 4.78711 15.1842 6.30488 16.7298 9.5C15.1861 12.6951 12.9947 14.2129 10 14.2129ZM9.9258 6.23438C8.12228 6.23438 6.66017 7.69648 6.66017 9.5C6.66017 11.3035 8.12228 12.7656 9.9258 12.7656C11.7293 12.7656 13.1914 11.3035 13.1914 9.5C13.1914 7.69648 11.7293 6.23438 9.9258 6.23438ZM9.9258 11.5781C8.77726 11.5781 7.84767 10.6485 7.84767 9.5C7.84767 8.35146 8.77726 7.42188 9.9258 7.42188C11.0743 7.42188 12.0039 8.35146 12.0039 9.5C12.0039 10.6485 11.0743 11.5781 9.9258 11.5781Z" fill="#685369"/>
</svg>
