<svg width="20" height="19" viewBox="0 0 20 19" fill="none" xmlns="http://www.w3.org/2000/svg">
<path d="M9.99996 1.58334C7.81733 1.58334 6.04163 3.35905 6.04163 5.54168V7.91668H5.24996C4.37675 7.91668 3.66663 8.6268 3.66663 9.50001V15.8333C3.66663 16.7066 4.37675 17.4167 5.24996 17.4167H14.75C15.6232 17.4167 16.3333 16.7066 16.3333 15.8333V9.50001C16.3333 8.6268 15.6232 7.91668 14.75 7.91668H13.9583V5.54168C13.9583 3.35905 12.1826 1.58334 9.99996 1.58334ZM14.75 9.50001L14.7515 15.8333H5.24996V9.50001H14.75ZM7.62496 7.91668V5.54168C7.62496 4.23226 8.69054 3.16668 9.99996 3.16668C11.3094 3.16668 12.375 4.23226 12.375 5.54168V7.91668H7.62496Z" fill="#685369"/>
</svg>
