<svg width="20" height="19" viewBox="0 0 20 19" fill="none" xmlns="http://www.w3.org/2000/svg">
<g clip-path="url(#clip0_2002_23)">
<path d="M0.5 4.75C0.5 4.12011 0.750223 3.51602 1.19562 3.07062C1.64102 2.62522 2.24511 2.375 2.875 2.375H17.125C17.7549 2.375 18.359 2.62522 18.8044 3.07062C19.2498 3.51602 19.5 4.12011 19.5 4.75V14.25C19.5 14.8799 19.2498 15.484 18.8044 15.9294C18.359 16.3748 17.7549 16.625 17.125 16.625H2.875C2.24511 16.625 1.64102 16.3748 1.19562 15.9294C0.750223 15.484 0.5 14.8799 0.5 14.25V4.75ZM2.875 3.5625C2.56006 3.5625 2.25801 3.68761 2.03531 3.91031C1.81261 4.13301 1.6875 4.43506 1.6875 4.75V5.00769L10 9.99519L18.3125 5.00769V4.75C18.3125 4.43506 18.1874 4.13301 17.9647 3.91031C17.742 3.68761 17.4399 3.5625 17.125 3.5625H2.875ZM18.3125 6.39231L12.7218 9.747L18.3125 13.1872V6.39231ZM18.2721 14.5576L11.5746 10.4358L10 11.3798L8.42537 10.4358L1.72787 14.5564C1.79536 14.8091 1.94438 15.0324 2.1518 15.1917C2.35922 15.3511 2.61345 15.4375 2.875 15.4375H17.125C17.3864 15.4375 17.6405 15.3513 17.8479 15.1922C18.0553 15.0331 18.2044 14.81 18.2721 14.5576ZM1.6875 13.1872L7.27825 9.747L1.6875 6.39231V13.1872Z" fill="#685369"/>
</g>
<defs>
<clipPath id="clip0_2002_23">
<rect width="19" height="19" fill="white" transform="translate(0.5)"/>
</clipPath>
</defs>
</svg>
