<svg width="20" height="20" viewBox="0 0 20 20" fill="none" xmlns="http://www.w3.org/2000/svg">
<g clip-path="url(#clip0_83_473)">
<path d="M4.00312 0.975C4.11374 0.827517 4.25717 0.707813 4.42206 0.625368C4.58695 0.542922 4.76877 0.5 4.95312 0.5H15.0469C15.2312 0.5 15.413 0.542922 15.5779 0.625368C15.7428 0.707813 15.8863 0.827517 15.9969 0.975L19.3813 5.4875C19.4583 5.59028 19.5 5.71528 19.5 5.84375V18.3125C19.5 18.6274 19.3749 18.9295 19.1522 19.1522C18.9295 19.3749 18.6274 19.5 18.3125 19.5H1.6875C1.37256 19.5 1.07051 19.3749 0.847811 19.1522C0.625111 18.9295 0.5 18.6274 0.5 18.3125V5.84375C0.5 5.71528 0.541668 5.59028 0.61875 5.4875L4.00312 0.975ZM9.40625 1.6875H4.95312L2.28125 5.25H9.40625V1.6875ZM10.5938 1.6875V5.25H17.7188L15.0469 1.6875H10.5938ZM18.3125 6.4375H1.6875V18.3125H18.3125V6.4375Z" fill="#EFA48B"/>
</g>
<defs>
<clipPath id="clip0_83_473">
<rect width="19" height="19" fill="white" transform="translate(0.5 0.5)"/>
</clipPath>
</defs>
</svg>
