<svg width="26" height="26" viewBox="0 0 26 26" fill="none" xmlns="http://www.w3.org/2000/svg">
<path d="M11.8281 4.01562H4.40625C4.19141 4.01562 4.01562 4.19141 4.01562 4.40625V11.8281C4.01562 12.043 4.19141 12.2188 4.40625 12.2188H11.8281C12.043 12.2188 12.2188 12.043 12.2188 11.8281V4.40625C12.2188 4.19141 12.043 4.01562 11.8281 4.01562ZM10.5586 10.5586H5.67578V5.67578H10.5586V10.5586ZM21.5938 4.01562H14.1719C13.957 4.01562 13.7812 4.19141 13.7812 4.40625V11.8281C13.7812 12.043 13.957 12.2188 14.1719 12.2188H21.5938C21.8086 12.2188 21.9844 12.043 21.9844 11.8281V4.40625C21.9844 4.19141 21.8086 4.01562 21.5938 4.01562ZM20.3242 10.5586H15.4414V5.67578H20.3242V10.5586ZM21.5938 13.7812H14.1719C13.957 13.7812 13.7812 13.957 13.7812 14.1719V21.5938C13.7812 21.8086 13.957 21.9844 14.1719 21.9844H21.5938C21.8086 21.9844 21.9844 21.8086 21.9844 21.5938V14.1719C21.9844 13.957 21.8086 13.7812 21.5938 13.7812ZM20.3242 20.3242H15.4414V15.4414H20.3242V20.3242ZM10.8516 17.8828H7.72656V14.7578C7.72656 14.6504 7.63867 14.5625 7.53125 14.5625H6.35938C6.25195 14.5625 6.16406 14.6504 6.16406 14.7578V17.8828H3.03906C2.93164 17.8828 2.84375 17.9707 2.84375 18.0781V19.25C2.84375 19.3574 2.93164 19.4453 3.03906 19.4453H6.16406V22.5703C6.16406 22.6777 6.25195 22.7656 6.35938 22.7656H7.53125C7.63867 22.7656 7.72656 22.6777 7.72656 22.5703V19.4453H10.8516C10.959 19.4453 11.0469 19.3574 11.0469 19.25V18.0781C11.0469 17.9707 10.959 17.8828 10.8516 17.8828Z" fill="#EFA48B"/>
</svg>
