<svg width="37" height="37" viewBox="0 0 37 37" fill="none" xmlns="http://www.w3.org/2000/svg">
<path d="M16.7656 5.20312H5.78125C5.46328 5.20312 5.20312 5.46328 5.20312 5.78125V16.7656C5.20312 17.0836 5.46328 17.3438 5.78125 17.3438H16.7656C17.0836 17.3438 17.3438 17.0836 17.3438 16.7656V5.78125C17.3438 5.46328 17.0836 5.20312 16.7656 5.20312ZM14.8867 14.8867H7.66016V7.66016H14.8867V14.8867ZM31.2188 5.20312H20.2344C19.9164 5.20312 19.6562 5.46328 19.6562 5.78125V16.7656C19.6562 17.0836 19.9164 17.3438 20.2344 17.3438H31.2188C31.5367 17.3438 31.7969 17.0836 31.7969 16.7656V5.78125C31.7969 5.46328 31.5367 5.20312 31.2188 5.20312ZM29.3398 14.8867H22.1133V7.66016H29.3398V14.8867ZM31.2188 19.6562H20.2344C19.9164 19.6562 19.6562 19.9164 19.6562 20.2344V31.2188C19.6562 31.5367 19.9164 31.7969 20.2344 31.7969H31.2188C31.5367 31.7969 31.7969 31.5367 31.7969 31.2188V20.2344C31.7969 19.9164 31.5367 19.6562 31.2188 19.6562ZM29.3398 29.3398H22.1133V22.1133H29.3398V29.3398ZM15.3203 25.7266H10.6953V21.1016C10.6953 20.9426 10.5652 20.8125 10.4062 20.8125H8.67188C8.51289 20.8125 8.38281 20.9426 8.38281 21.1016V25.7266H3.75781C3.59883 25.7266 3.46875 25.8566 3.46875 26.0156V27.75C3.46875 27.909 3.59883 28.0391 3.75781 28.0391H8.38281V32.6641C8.38281 32.823 8.51289 32.9531 8.67188 32.9531H10.4062C10.5652 32.9531 10.6953 32.823 10.6953 32.6641V28.0391H15.3203C15.4793 28.0391 15.6094 27.909 15.6094 27.75V26.0156C15.6094 25.8566 15.4793 25.7266 15.3203 25.7266Z" fill="#685369"/>
</svg>
