<svg width="19" height="20" viewBox="0 0 19 20" fill="none" xmlns="http://www.w3.org/2000/svg">
<g clip-path="url(#clip0_168_12)">
<path d="M15.0417 6.04183V8.40891C15.0417 8.40891 13.4663 8.41683 13.4583 8.40891V6.04183H11.0833C11.0833 6.04183 11.0913 4.46641 11.0833 4.4585H13.4583V2.0835H15.0417V4.4585H17.4167V6.04183H15.0417ZM12.6667 9.2085V6.8335H10.2917V4.4585H3.95833C3.0875 4.4585 2.375 5.171 2.375 6.04183V15.5418C2.375 16.4127 3.0875 17.1252 3.95833 17.1252H13.4583C14.3292 17.1252 15.0417 16.4127 15.0417 15.5418V9.2085H12.6667ZM3.95833 15.5418L6.33333 12.3752L7.91667 14.7502L10.2917 11.5835L13.4583 15.5418H3.95833Z" fill="#685369"/>
</g>
<defs>
<clipPath id="clip0_168_12">
<rect width="19" height="19" fill="white" transform="translate(0 0.5)"/>
</clipPath>
</defs>
</svg>
