<svg width="19" height="20" viewBox="0 0 19 20" fill="none" xmlns="http://www.w3.org/2000/svg">
<path d="M9.50004 12.375C8.04337 12.375 7.91671 11.6942 7.91671 11.5833H6.33337C6.33337 12.3117 6.85587 13.6021 8.70837 13.895V14.75H10.2917V13.895C11.875 13.6258 12.6667 12.6046 12.6667 11.5833C12.6667 10.6967 12.255 9.20833 9.50004 9.20833C7.91671 9.20833 7.91671 8.70958 7.91671 8.41667C7.91671 8.12375 8.47087 7.625 9.50004 7.625C10.5292 7.625 10.6005 8.13167 10.6084 8.41667H12.1917C12.181 7.87735 11.987 7.35774 11.6417 6.94334C11.2964 6.52894 10.8203 6.24445 10.2917 6.13667V5.25H8.70837V6.11292C7.12504 6.37417 6.33337 7.39542 6.33337 8.41667C6.33337 9.30333 6.74504 10.7917 9.50004 10.7917C11.0834 10.7917 11.0834 11.33 11.0834 11.5833C11.0834 11.8367 10.5925 12.375 9.50004 12.375Z" fill="#685369"/>
<path d="M3.95837 2.0835H1.58337V3.66683H3.16671V17.1252C3.16671 17.3351 3.25011 17.5365 3.39858 17.685C3.54705 17.8334 3.74841 17.9168 3.95837 17.9168H15.0417C15.2517 17.9168 15.453 17.8334 15.6015 17.685C15.75 17.5365 15.8334 17.3351 15.8334 17.1252V3.66683H17.4167V2.0835H3.95837ZM14.25 16.3335H4.75004V3.66683H14.25V16.3335Z" fill="#685369"/>
</svg>
