<svg width="252" height="252" viewBox="0 0 252 252" fill="none" xmlns="http://www.w3.org/2000/svg">
<mask id="path-1-outside-1_41_26" maskUnits="userSpaceOnUse" x="0" y="0" width="252" height="252" fill="black">
<rect fill="white" width="252" height="252"/>
<path d="M5 57C5 28.2812 28.2812 5 57 5H195C223.719 5 247 28.2812 247 57V195C247 223.719 223.719 247 195 247H57C28.2812 247 5 223.719 5 195V57Z"/>
<path d="M123 214V144H36C31.0294 144 27 139.971 27 135C27 130.029 31.0294 126 36 126H132L132.463 126.012C137.218 126.253 141 130.185 141 135V214C141 218.971 136.971 223 132 223C127.029 223 123 218.971 123 214Z"/>
<path d="M115.76 114H97.976L68.232 68.968V114H50.448V40.992H68.232L97.976 86.232V40.992H115.76V114Z"/>
<path d="M173.232 148.24V163.008H197.048V176.736H173.232V192.752H200.168V207H155.448V133.992H200.168V148.24H173.232Z"/>
</mask>
<path d="M5 57C5 28.2812 28.2812 5 57 5H195C223.719 5 247 28.2812 247 57V195C247 223.719 223.719 247 195 247H57C28.2812 247 5 223.719 5 195V57Z" fill="#EEEEEE"/>
<path d="M123 214V144H36C31.0294 144 27 139.971 27 135C27 130.029 31.0294 126 36 126H132L132.463 126.012C137.218 126.253 141 130.185 141 135V214C141 218.971 136.971 223 132 223C127.029 223 123 218.971 123 214Z" fill="#ECD0B3"/>
<path d="M115.76 114H97.976L68.232 68.968V114H50.448V40.992H68.232L97.976 86.232V40.992H115.76V114Z" fill="#685369"/>
<path d="M173.232 148.24V163.008H197.048V176.736H173.232V192.752H200.168V207H155.448V133.992H200.168V148.24H173.232Z" fill="#EFA48B"/>
<path d="M123 214H118H123ZM123 144H128C128 141.239 125.761 139 123 139V144ZM132 126L132.127 121.002C132.084 121.001 132.042 121 132 121V126ZM132.463 126.012L132.716 121.018C132.674 121.016 132.632 121.014 132.589 121.013L132.463 126.012ZM141 214H146H141ZM132 223V228V223ZM115.76 114V119H120.76V114H115.76ZM97.976 114L93.8039 116.756L95.2863 119H97.976V114ZM68.232 68.968L72.4041 66.2123L63.232 52.3259V68.968H68.232ZM68.232 114V119H73.232V114H68.232ZM50.448 114H45.448V119H50.448V114ZM50.448 40.992V35.992H45.448V40.992H50.448ZM68.232 40.992L72.4099 38.2451L70.9285 35.992H68.232V40.992ZM97.976 86.232L93.7981 88.9788L102.976 102.938V86.232H97.976ZM97.976 40.992V35.992H92.976V40.992H97.976ZM115.76 40.992H120.76V35.992H115.76V40.992ZM173.232 148.24V143.24H168.232V148.24H173.232ZM173.232 163.008H168.232V168.008H173.232V163.008ZM197.048 163.008H202.048V158.008H197.048V163.008ZM197.048 176.736V181.736H202.048V176.736H197.048ZM173.232 176.736V171.736H168.232V176.736H173.232ZM173.232 192.752H168.232V197.752H173.232V192.752ZM200.168 192.752H205.168V187.752H200.168V192.752ZM200.168 207V212H205.168V207H200.168ZM155.448 207H150.448V212H155.448V207ZM155.448 133.992V128.992H150.448V133.992H155.448ZM200.168 133.992H205.168V128.992H200.168V133.992ZM200.168 148.24V153.24H205.168V148.24H200.168ZM57 5V10H195V5V0H57V5ZM247 57H242V195H247H252V57H247ZM195 247V242H57V247V252H195V247ZM5 195H10V57H5H0V195H5ZM57 247V242C31.0426 242 10 220.957 10 195H5H0C0 226.48 25.5198 252 57 252V247ZM247 195H242C242 220.957 220.957 242 195 242V247V252C226.48 252 252 226.48 252 195H247ZM195 5V10C220.957 10 242 31.0426 242 57H247H252C252 25.5198 226.48 0 195 0V5ZM57 5V0C25.5198 0 0 25.5198 0 57H5H10C10 31.0426 31.0426 10 57 10V5ZM123 214H128V144H123H118V214H123ZM123 144V139H36V144V149H123V144ZM36 144V139C33.7909 139 32 137.209 32 135H27H22C22 142.732 28.268 149 36 149V144ZM27 135H32C32 132.791 33.7909 131 36 131V126V121C28.268 121 22 127.268 22 135H27ZM36 126V131H132V126V121H36V126ZM132 126L131.873 130.998L132.336 131.01L132.463 126.012L132.589 121.013L132.127 121.002L132 126ZM132.463 126.012L132.21 131.005C134.319 131.112 136 132.861 136 135H141H146C146 127.508 140.117 121.393 132.716 121.018L132.463 126.012ZM141 135H136V214H141H146V135H141ZM141 214H136C136 216.209 134.209 218 132 218V223V228C139.732 228 146 221.732 146 214H141ZM132 223V218C129.791 218 128 216.209 128 214H123H118C118 221.732 124.268 228 132 228V223ZM115.76 114V109H97.976V114V119H115.76V114ZM97.976 114L102.148 111.244L72.4041 66.2123L68.232 68.968L64.0599 71.7237L93.8039 116.756L97.976 114ZM68.232 68.968H63.232V114H68.232H73.232V68.968H68.232ZM68.232 114V109H50.448V114V119H68.232V114ZM50.448 114H55.448V40.992H50.448H45.448V114H50.448ZM50.448 40.992V45.992H68.232V40.992V35.992H50.448V40.992ZM68.232 40.992L64.0541 43.7388L93.7981 88.9788L97.976 86.232L102.154 83.4851L72.4099 38.2451L68.232 40.992ZM97.976 86.232H102.976V40.992H97.976H92.976V86.232H97.976ZM97.976 40.992V45.992H115.76V40.992V35.992H97.976V40.992ZM115.76 40.992H110.76V114H115.76H120.76V40.992H115.76ZM173.232 148.24H168.232V163.008H173.232H178.232V148.24H173.232ZM173.232 163.008V168.008H197.048V163.008V158.008H173.232V163.008ZM197.048 163.008H192.048V176.736H197.048H202.048V163.008H197.048ZM197.048 176.736V171.736H173.232V176.736V181.736H197.048V176.736ZM173.232 176.736H168.232V192.752H173.232H178.232V176.736H173.232ZM173.232 192.752V197.752H200.168V192.752V187.752H173.232V192.752ZM200.168 192.752H195.168V207H200.168H205.168V192.752H200.168ZM200.168 207V202H155.448V207V212H200.168V207ZM155.448 207H160.448V133.992H155.448H150.448V207H155.448ZM155.448 133.992V138.992H200.168V133.992V128.992H155.448V133.992ZM200.168 133.992H195.168V148.24H200.168H205.168V133.992H200.168ZM200.168 148.24V143.24H173.232V148.24V153.24H200.168V148.24Z" fill="#ECD0B3" mask="url(#path-1-outside-1_41_26)"/>
</svg>
