<svg width="226" height="72" viewBox="0 0 226 72" fill="none" xmlns="http://www.w3.org/2000/svg">
<path d="M30.599 14.9194C30.599 12.8925 30.9757 11.113 31.7291 9.58097C32.506 8.04896 33.5536 6.87049 34.872 6.04556C36.1903 5.22063 37.6617 4.80817 39.2862 4.80817C40.6752 4.80817 41.8876 5.091 42.9235 5.65667C43.9829 6.22233 44.7951 6.96477 45.3601 7.88398V5.091H51.3987V24.8186H45.3601V22.0256C44.7715 22.9448 43.9475 23.6873 42.8881 24.2529C41.8523 24.8186 40.6398 25.1014 39.2508 25.1014C37.65 25.1014 36.1903 24.689 34.872 23.864C33.5536 23.0155 32.506 21.8253 31.7291 20.2933C30.9757 18.7377 30.599 16.9464 30.599 14.9194ZM45.3601 14.9548C45.3601 13.4464 44.9363 12.2561 44.0888 11.384C43.2648 10.512 42.2525 10.0759 41.0518 10.0759C39.8512 10.0759 38.8271 10.512 37.9796 11.384C37.1556 12.2325 36.7436 13.411 36.7436 14.9194C36.7436 16.4279 37.1556 17.6299 37.9796 18.5256C38.8271 19.3976 39.8512 19.8337 41.0518 19.8337C42.2525 19.8337 43.2648 19.3976 44.0888 18.5256C44.9363 17.6535 45.3601 16.4632 45.3601 14.9548Z" fill="#685369"/>
<path d="M27.4225 24.8186H21.3838L11.2842 9.51026V24.8186H5.24553V0H11.2842L21.3838 15.379V0H27.4225V24.8186Z" fill="#685369"/>
<path d="M200.922 48.3726C200.922 45.9359 201.4 43.7747 202.356 41.8892C203.341 40.0036 204.66 38.5532 206.311 37.5379C207.992 36.5226 209.861 36.015 211.918 36.015C213.714 36.015 215.279 36.3776 216.612 37.1028C217.974 37.828 219.06 38.7418 219.872 39.8441V36.4066H226V60.5127H219.872V56.9881C219.089 58.1194 218.003 59.0622 216.612 59.8164C215.25 60.5417 213.671 60.9043 211.875 60.9043C209.846 60.9043 207.992 60.3821 206.311 59.3378C204.66 58.2935 203.341 56.8286 202.356 54.943C201.4 53.0285 200.922 50.8383 200.922 48.3726ZM219.872 48.4596C219.872 46.9802 219.582 45.7183 219.002 44.674C218.423 43.6007 217.641 42.7885 216.655 42.2373C215.67 41.6571 214.613 41.367 213.483 41.367C212.353 41.367 211.31 41.6426 210.353 42.1938C209.397 42.7449 208.615 43.5572 208.006 44.6305C207.427 45.6748 207.137 46.9222 207.137 48.3726C207.137 49.823 207.427 51.0994 208.006 52.2017C208.615 53.275 209.397 54.1018 210.353 54.6819C211.339 55.2621 212.382 55.5522 213.483 55.5522C214.613 55.5522 215.67 55.2766 216.655 54.7255C217.641 54.1453 218.423 53.333 219.002 52.2887C219.582 51.2154 219.872 49.9391 219.872 48.4596Z" fill="#685369"/>
<path d="M187.095 36.0585C189.963 36.0585 192.281 36.9722 194.049 38.7998C195.816 40.5983 196.7 43.122 196.7 46.371V60.5126H190.615V47.1977C190.615 45.2832 190.137 43.8182 189.181 42.8029C188.225 41.7586 186.921 41.2365 185.269 41.2365C183.589 41.2365 182.256 41.7586 181.271 42.8029C180.315 43.8182 179.837 45.2832 179.837 47.1977V60.5126H173.752V36.4066H179.837V39.409C180.648 38.3646 181.677 37.5524 182.923 36.9722C184.197 36.3631 185.588 36.0585 187.095 36.0585Z" fill="#685369"/>
<path d="M164.741 33.5348C163.669 33.5348 162.771 33.2012 162.047 32.534C161.351 31.8378 161.004 30.982 161.004 29.9667C161.004 28.9514 161.351 28.1102 162.047 27.443C162.771 26.7468 163.669 26.3987 164.741 26.3987C165.813 26.3987 166.697 26.7468 167.393 27.443C168.117 28.1102 168.479 28.9514 168.479 29.9667C168.479 30.982 168.117 31.8378 167.393 32.534C166.697 33.2012 165.813 33.5348 164.741 33.5348ZM167.74 36.4066V60.5127H161.655V36.4066H167.74Z" fill="#685369"/>
<path d="M155.652 36.4066V60.5126H149.524V57.4668C148.741 58.5111 147.713 59.3378 146.438 59.947C145.192 60.5271 143.83 60.8172 142.352 60.8172C140.469 60.8172 138.803 60.4256 137.354 59.6424C135.905 58.8302 134.761 57.6553 133.921 56.1179C133.109 54.5514 132.704 52.6949 132.704 50.5482V36.4066H138.788V49.678C138.788 51.5925 139.267 53.072 140.223 54.1163C141.179 55.1316 142.483 55.6392 144.134 55.6392C145.815 55.6392 147.133 55.1316 148.09 54.1163C149.046 53.072 149.524 51.5925 149.524 49.678V36.4066H155.652Z" fill="#685369"/>
<path d="M101.9 48.4161C101.9 46.0084 102.392 43.8763 103.378 42.0197C104.392 40.1342 105.753 38.6692 107.463 37.6249C109.173 36.5806 111.056 36.0585 113.113 36.0585C114.823 36.0585 116.329 36.3921 117.633 37.0593C118.966 37.6974 120.038 38.5242 120.85 39.5395V36.4066H126.978V72H120.85V57.2057C120.038 58.25 118.952 59.1202 117.59 59.8164C116.228 60.5126 114.692 60.8607 112.983 60.8607C110.955 60.8607 109.086 60.3386 107.376 59.2943C105.696 58.221 104.363 56.7415 103.378 54.856C102.392 52.9704 101.9 50.8238 101.9 48.4161ZM120.85 48.4596C120.85 46.9802 120.545 45.7038 119.937 44.6305C119.328 43.5572 118.532 42.7449 117.546 42.1938C116.59 41.6426 115.562 41.367 114.461 41.367C113.388 41.367 112.36 41.6426 111.375 42.1938C110.418 42.7449 109.636 43.5572 109.028 44.6305C108.419 45.6748 108.115 46.9367 108.115 48.4161C108.115 49.8955 108.419 51.1864 109.028 52.2887C109.636 53.362 110.418 54.1743 111.375 54.7254C112.36 55.2766 113.388 55.5522 114.461 55.5522C115.562 55.5522 116.59 55.2766 117.546 54.7254C118.532 54.1743 119.328 53.362 119.937 52.2887C120.545 51.2154 120.85 49.939 120.85 48.4596Z" fill="#685369"/>
<path d="M88.9949 60.9043C87.0246 60.9043 85.2571 60.5562 83.6925 59.86C82.1278 59.1348 80.8819 58.163 79.9547 56.9446C79.0564 55.7262 78.5638 54.3774 78.4769 52.8979H84.6052C84.7211 53.8262 85.1702 54.5949 85.9525 55.2041C86.7638 55.8133 87.7635 56.1179 88.9515 56.1179C90.1105 56.1179 91.0087 55.8858 91.6462 55.4217C92.3126 54.9575 92.6458 54.3629 92.6458 53.6376C92.6458 52.8544 92.2402 52.2742 91.4288 51.8971C90.6465 51.491 89.3861 51.0559 87.6476 50.5917C85.8511 50.1566 84.3734 49.707 83.2144 49.2428C82.0843 48.7787 81.0992 48.068 80.2589 47.1107C79.4476 46.1534 79.0419 44.8626 79.0419 43.2381C79.0419 41.9037 79.4186 40.6853 80.172 39.583C80.9543 38.4807 82.0554 37.6104 83.4751 36.9723C84.9239 36.3341 86.6189 36.015 88.5603 36.015C91.4288 36.015 93.7179 36.7402 95.4274 38.1906C97.137 39.612 98.0787 41.5411 98.2525 43.9778H92.4285C92.3416 43.0205 91.9359 42.2663 91.2115 41.7151C90.5161 41.135 89.5744 40.8449 88.3864 40.8449C87.2854 40.8449 86.4306 41.0479 85.8221 41.4541C85.2426 41.8602 84.9529 42.4258 84.9529 43.1511C84.9529 43.9633 85.3585 44.587 86.1698 45.0221C86.9811 45.4282 88.2416 45.8489 89.9511 46.284C91.6896 46.7191 93.1239 47.1687 94.2539 47.6329C95.384 48.097 96.3546 48.8222 97.1659 49.8085C98.0062 50.7658 98.4408 52.0422 98.4698 53.6376C98.4698 55.03 98.0787 56.2774 97.2963 57.3797C96.543 58.4821 95.4419 59.3523 93.9931 59.9905C92.5734 60.5997 90.9073 60.9043 88.9949 60.9043Z" fill="#685369"/>
<path d="M62.7336 35.0577V42.6724H72.9474V47.5023H62.7336V55.5522H74.2513V60.5126H56.6488V30.0972H74.2513V35.0577H62.7336Z" fill="#685369"/>
<path d="M46.8584 60.5127V36.7166H3.05598C1.36821 36.7166 0 35.3468 0 33.6571C0 31.9674 1.36821 30.5976 3.05598 30.5976H49.9144L50.0715 30.6016C51.6863 30.6835 52.9703 32.0202 52.9703 33.6571V60.5127C52.9703 62.2024 51.6021 63.5722 49.9144 63.5722C48.2266 63.5722 46.8584 62.2024 46.8584 60.5127Z" fill="#685369"/>
</svg>
