<svg width="666" height="212" viewBox="0 0 666 212" fill="none" xmlns="http://www.w3.org/2000/svg">
<path d="M90.1151 43.88C90.1151 37.9173 91.2244 32.6827 93.4431 28.176C95.7311 23.6693 98.8164 20.2027 102.699 17.776C106.582 15.3493 110.915 14.136 115.699 14.136C119.79 14.136 123.36 14.968 126.411 16.632C129.531 18.296 131.923 20.48 133.587 23.184V14.968H151.371V73H133.587V64.784C131.854 67.488 129.427 69.672 126.307 71.336C123.256 73 119.686 73.832 115.595 73.832C110.88 73.832 106.582 72.6187 102.699 70.192C98.8164 67.696 95.7311 64.1947 93.4431 59.688C91.2244 55.112 90.1151 49.8427 90.1151 43.88ZM133.587 43.984C133.587 39.5467 132.339 36.0453 129.843 33.48C127.416 30.9147 124.435 29.632 120.899 29.632C117.363 29.632 114.347 30.9147 111.851 33.48C109.424 35.976 108.211 39.4427 108.211 43.88C108.211 48.3173 109.424 51.8533 111.851 54.488C114.347 57.0533 117.363 58.336 120.899 58.336C124.435 58.336 127.416 57.0533 129.843 54.488C132.339 51.9227 133.587 48.4213 133.587 43.984Z" fill="#685369"/>
<path d="M80.76 73H62.976L33.232 27.968V73H15.448V-0.00799561H33.232L62.976 45.232V-0.00799561H80.76V73Z" fill="#685369"/>
<path d="M591.724 142.288C591.724 135.12 593.132 128.763 595.948 123.216C598.849 117.669 602.732 113.403 607.596 110.416C612.545 107.429 618.049 105.936 624.108 105.936C629.399 105.936 634.007 107.003 637.932 109.136C641.943 111.269 645.143 113.957 647.532 117.2V107.088H665.58V178H647.532V167.632C645.228 170.96 642.028 173.733 637.932 175.952C633.921 178.085 629.271 179.152 623.98 179.152C618.007 179.152 612.545 177.616 607.596 174.544C602.732 171.472 598.849 167.163 595.948 161.616C593.132 155.984 591.724 149.541 591.724 142.288ZM647.532 142.544C647.532 138.192 646.679 134.48 644.972 131.408C643.265 128.251 640.961 125.861 638.06 124.24C635.159 122.533 632.044 121.68 628.716 121.68C625.388 121.68 622.316 122.491 619.5 124.112C616.684 125.733 614.38 128.123 612.588 131.28C610.881 134.352 610.028 138.021 610.028 142.288C610.028 146.555 610.881 150.309 612.588 153.552C614.38 156.709 616.684 159.141 619.5 160.848C622.401 162.555 625.473 163.408 628.716 163.408C632.044 163.408 635.159 162.597 638.06 160.976C640.961 159.269 643.265 156.88 644.972 153.808C646.679 150.651 647.532 146.896 647.532 142.544Z" fill="#F9F9F9"/>
<path d="M551.003 106.064C559.451 106.064 566.278 108.752 571.483 114.128C576.688 119.419 579.291 126.843 579.291 136.4V178H561.371V138.832C561.371 133.2 559.963 128.891 557.147 125.904C554.331 122.832 550.491 121.296 545.627 121.296C540.678 121.296 536.752 122.832 533.851 125.904C531.035 128.891 529.627 133.2 529.627 138.832V178H511.707V107.088H529.627V115.92C532.016 112.848 535.046 110.459 538.715 108.752C542.47 106.96 546.566 106.064 551.003 106.064Z" fill="#F9F9F9"/>
<path d="M485.17 98.64C482.013 98.64 479.367 97.6587 477.234 95.696C475.186 93.648 474.162 91.1307 474.162 88.144C474.162 85.1573 475.186 82.6827 477.234 80.72C479.367 78.672 482.013 77.648 485.17 77.648C488.327 77.648 490.93 78.672 492.978 80.72C495.111 82.6827 496.178 85.1573 496.178 88.144C496.178 91.1307 495.111 93.648 492.978 95.696C490.93 97.6587 488.327 98.64 485.17 98.64ZM494.002 107.088V178H476.082V107.088H494.002Z" fill="#F9F9F9"/>
<path d="M458.401 107.088V178H440.353V169.04C438.049 172.112 435.02 174.544 431.265 176.336C427.596 178.043 423.585 178.896 419.233 178.896C413.686 178.896 408.78 177.744 404.513 175.44C400.246 173.051 396.876 169.595 394.401 165.072C392.012 160.464 390.817 155.003 390.817 148.688V107.088H408.737V146.128C408.737 151.76 410.145 156.112 412.961 159.184C415.777 162.171 419.617 163.664 424.481 163.664C429.43 163.664 433.313 162.171 436.129 159.184C438.945 156.112 440.353 151.76 440.353 146.128V107.088H458.401Z" fill="#F9F9F9"/>
<path d="M300.099 142.416C300.099 135.333 301.55 129.061 304.451 123.6C307.438 118.053 311.448 113.744 316.483 110.672C321.518 107.6 327.064 106.064 333.123 106.064C338.158 106.064 342.595 107.045 346.435 109.008C350.36 110.885 353.518 113.317 355.907 116.304V107.088H373.955V211.792H355.907V168.272C353.518 171.344 350.318 173.904 346.307 175.952C342.296 178 337.774 179.024 332.739 179.024C326.766 179.024 321.262 177.488 316.227 174.416C311.278 171.259 307.352 166.907 304.451 161.36C301.55 155.813 300.099 149.499 300.099 142.416ZM355.907 142.544C355.907 138.192 355.011 134.437 353.219 131.28C351.427 128.123 349.08 125.733 346.179 124.112C343.363 122.491 340.334 121.68 337.091 121.68C333.934 121.68 330.904 122.491 328.003 124.112C325.187 125.733 322.883 128.123 321.091 131.28C319.299 134.352 318.403 138.064 318.403 142.416C318.403 146.768 319.299 150.565 321.091 153.808C322.883 156.965 325.187 159.355 328.003 160.976C330.904 162.597 333.934 163.408 337.091 163.408C340.334 163.408 343.363 162.597 346.179 160.976C349.08 159.355 351.427 156.965 353.219 153.808C355.011 150.651 355.907 146.896 355.907 142.544Z" fill="#F9F9F9"/>
<path d="M262.093 179.152C256.29 179.152 251.085 178.128 246.477 176.08C241.869 173.947 238.2 171.088 235.469 167.504C232.824 163.92 231.373 159.952 231.117 155.6H249.165C249.506 158.331 250.829 160.592 253.133 162.384C255.522 164.176 258.466 165.072 261.965 165.072C265.378 165.072 268.024 164.389 269.901 163.024C271.864 161.659 272.845 159.909 272.845 157.776C272.845 155.472 271.65 153.765 269.261 152.656C266.957 151.461 263.245 150.181 258.125 148.816C252.834 147.536 248.482 146.213 245.069 144.848C241.741 143.483 238.84 141.392 236.365 138.576C233.976 135.76 232.781 131.963 232.781 127.184C232.781 123.259 233.89 119.675 236.109 116.432C238.413 113.189 241.656 110.629 245.837 108.752C250.104 106.875 255.096 105.936 260.813 105.936C269.261 105.936 276.002 108.069 281.037 112.336C286.072 116.517 288.845 122.192 289.357 129.36H272.205C271.949 126.544 270.754 124.325 268.621 122.704C266.573 120.997 263.8 120.144 260.301 120.144C257.058 120.144 254.541 120.741 252.749 121.936C251.042 123.131 250.189 124.795 250.189 126.928C250.189 129.317 251.384 131.152 253.773 132.432C256.162 133.627 259.874 134.864 264.909 136.144C270.029 137.424 274.253 138.747 277.581 140.112C280.909 141.477 283.768 143.611 286.157 146.512C288.632 149.328 289.912 153.083 289.997 157.776C289.997 161.872 288.845 165.541 286.541 168.784C284.322 172.027 281.08 174.587 276.813 176.464C272.632 178.256 267.725 179.152 262.093 179.152Z" fill="#F9F9F9"/>
<path d="M184.752 103.12V125.52H214.832V139.728H184.752V163.408H218.672V178H166.832V88.528H218.672V103.12H184.752Z" fill="#F9F9F9"/>
<path d="M138 178V108H9C4.02944 108 0 103.971 0 99C0 94.0294 4.02944 90 9 90H147L147.463 90.0117C152.218 90.2526 156 94.1847 156 99V178C156 182.971 151.971 187 147 187C142.029 187 138 182.971 138 178Z" fill="#ECD0B3"/>
</svg>
