<svg width="19" height="20" viewBox="0 0 19 20" fill="none" xmlns="http://www.w3.org/2000/svg">
<g clip-path="url(#clip0_155_115)">
<path d="M9.72087 1.82186C9.57911 1.76504 9.42089 1.76504 9.27913 1.82186L2.19212 4.65642L9.5 7.57886L16.8079 4.65642L9.72087 1.82186ZM17.8125 5.53398L10.0938 8.62148V18.0289L17.8125 14.9414V5.53398ZM8.90625 18.03V8.62029L1.1875 5.53398V14.9425L8.90625 18.03ZM8.83856 0.718669C9.26317 0.548855 9.73683 0.548855 10.1614 0.718669L18.6271 4.10542C18.7372 4.14953 18.8315 4.22558 18.898 4.32379C18.9644 4.42199 19 4.53784 19 4.65642V14.9425C18.9998 15.1798 18.9286 15.4116 18.7955 15.6081C18.6623 15.8045 18.4734 15.9565 18.2531 16.0445L9.72087 19.4574C9.57911 19.5142 9.42089 19.5142 9.27913 19.4574L0.748125 16.0445C0.527548 15.9567 0.338369 15.8047 0.205012 15.6083C0.0716558 15.4119 0.000245016 15.18 0 14.9425L0 4.65642C2.75974e-05 4.53784 0.0355582 4.42199 0.102015 4.32379C0.168471 4.22558 0.262809 4.14953 0.372875 4.10542L8.83856 0.718669Z" fill="#685369"/>
</g>
<defs>
<clipPath id="clip0_155_115">
<rect width="19" height="19" fill="white" transform="translate(0 0.5)"/>
</clipPath>
</defs>
</svg>
